<svg width="18" height="18" viewBox="0 0 18 18" fill="none" xmlns="http://www.w3.org/2000/svg">
<path d="M9.31941 18C7.86116 18 6.56755 17.8 5.43858 17.4002C4.31432 17.0051 3.36646 16.4218 2.595 15.6503C1.82354 14.8835 1.23789 13.9427 0.838045 12.8279C0.438202 11.713 0.238281 10.4406 0.238281 9.01056C0.238281 7.61817 0.440554 6.3669 0.845101 5.25675C1.24965 4.1466 1.83765 3.20109 2.60911 2.42022C3.38528 1.63465 4.32843 1.03489 5.43858 0.620932C6.54873 0.206977 7.80941 0 9.22062 0C10.5707 0 11.7608 0.211681 12.791 0.635044C13.8212 1.05841 14.6867 1.63935 15.3876 2.37789C16.0932 3.11642 16.6248 3.96314 16.9823 4.91806C17.3398 5.87298 17.5185 6.88199 17.5185 7.9451C17.5185 8.68834 17.4715 9.41511 17.3774 10.1254C17.2833 10.831 17.1093 11.4708 16.8553 12.0447C16.6059 12.6139 16.2437 13.0701 15.7686 13.4135C15.2982 13.7522 14.6867 13.9286 13.9341 13.9427C13.5342 13.9569 13.1461 13.9098 12.7698 13.8016C12.3935 13.6934 12.0736 13.5194 11.8102 13.2795C11.5468 13.0349 11.3868 12.7244 11.3304 12.3481H11.2457C11.1328 12.6256 10.9446 12.8843 10.6812 13.1242C10.4178 13.3594 10.0815 13.5476 9.67221 13.6887C9.26766 13.8251 8.79726 13.8816 8.261 13.8581C7.66829 13.8345 7.13439 13.7005 6.65928 13.4559C6.18417 13.2113 5.77727 12.8726 5.43858 12.4398C5.1046 12.007 4.84823 11.4943 4.66948 10.9016C4.49072 10.3089 4.40135 9.65031 4.40135 8.92589C4.40135 8.2297 4.50248 7.60641 4.70476 7.05604C4.90703 6.50097 5.18221 6.02351 5.53031 5.62367C5.88311 5.21912 6.28766 4.89925 6.74395 4.66404C7.20024 4.42884 7.6824 4.28067 8.19044 4.21951C8.68436 4.16306 9.1383 4.17718 9.55226 4.26185C9.96621 4.34652 10.3096 4.47588 10.5824 4.64993C10.86 4.82398 11.034 5.01449 11.1046 5.22147H11.1963V4.43119H12.9321V10.9792C12.9321 11.3508 13.0285 11.666 13.2214 11.9247C13.419 12.1834 13.6989 12.3128 14.0611 12.3128C14.4891 12.3128 14.8231 12.1552 15.063 11.84C15.3076 11.5249 15.4793 11.0404 15.5781 10.3865C15.6816 9.73263 15.7333 8.89532 15.7333 7.87454C15.7333 7.15953 15.6369 6.48685 15.4441 5.85651C15.2559 5.22147 14.976 4.64758 14.6044 4.13484C14.2375 3.6174 13.7859 3.17287 13.2496 2.80125C12.7134 2.42963 12.1018 2.14268 11.4151 1.94041C10.733 1.73814 9.97797 1.637 9.15006 1.637C8.0258 1.637 7.02619 1.81105 6.15124 2.15915C5.2763 2.50254 4.53776 2.99882 3.93565 3.64797C3.33824 4.29713 2.8843 5.07565 2.57383 5.98352C2.26807 6.8867 2.11519 7.90041 2.11519 9.02468C2.11519 10.196 2.27277 11.2356 2.58794 12.1434C2.90311 13.0466 3.36881 13.8087 3.98504 14.4296C4.60127 15.0505 5.36332 15.5209 6.2712 15.8408C7.17907 16.1654 8.22572 16.3277 9.41114 16.3277C9.93799 16.3277 10.4554 16.2806 10.9635 16.1866C11.4715 16.0972 11.9231 15.9937 12.3182 15.8761C12.7181 15.7632 13.0168 15.6715 13.2143 15.6009L13.7083 17.1462C13.4166 17.2826 13.0285 17.4167 12.544 17.5484C12.0642 17.6801 11.5421 17.7883 10.9776 17.873C10.4178 17.9576 9.86507 18 9.31941 18ZM8.67025 12.1293C9.28178 12.1293 9.77335 12.007 10.145 11.7624C10.5213 11.5178 10.7918 11.1532 10.9564 10.6687C11.1258 10.1795 11.2104 9.56799 11.2104 8.83416C11.2057 8.11915 11.114 7.54996 10.9352 7.1266C10.7612 6.69854 10.4884 6.39277 10.1167 6.20932C9.74982 6.02116 9.27707 5.92707 8.69847 5.92707C8.16692 5.92707 7.71298 6.05644 7.33666 6.31516C6.96504 6.57388 6.68045 6.92433 6.48288 7.36651C6.29001 7.80869 6.19123 8.30026 6.18652 8.84122C6.19123 9.41041 6.2712 9.94667 6.42643 10.45C6.58637 10.9486 6.84509 11.3532 7.20259 11.6636C7.5648 11.9741 8.05402 12.1293 8.67025 12.1293Z" fill="white"/>
</svg>
