<svg width="20" height="20" viewBox="0 0 20 20" fill="none" xmlns="http://www.w3.org/2000/svg">
<path fill-rule="evenodd" clip-rule="evenodd" d="M8.77582 6.29484C8.39106 6.0727 7.97654 5.83337 7.08337 5.83337C5.41671 5.83337 3.33337 7.50004 3.33337 10.8334C3.33337 14.1667 5.53654 18.3334 7.50004 18.3334C8.12504 18.3334 8.43754 18.125 8.75004 17.9167C9.06254 17.7084 9.37504 17.5 10 17.5C10.625 17.5 10.9375 17.7084 11.25 17.9167C11.5625 18.125 11.875 18.3334 12.5 18.3334C13.8982 18.3334 15.7135 16.237 16.6431 13.8148C16.7391 13.5647 16.5621 13.2995 16.3039 13.228C15.0715 12.8871 14.1667 11.7576 14.1667 10.4167C14.1667 9.3205 14.7715 8.36555 15.6655 7.86726C15.9189 7.72606 16.0248 7.38776 15.8209 7.18152C14.9277 6.27821 13.7861 5.83337 12.9167 5.83337C12.2917 5.83337 11.875 6.04171 11.4584 6.25004C11.0417 6.45837 10.625 6.66671 10 6.66671C9.41991 6.66671 9.10902 6.48722 8.77582 6.29484Z" fill="white"/>
<path d="M10 4.62959C10 2.99319 11.3266 1.66663 12.963 1.66663C13.1675 1.66663 13.3333 1.83245 13.3333 2.037C13.3333 3.6734 12.0068 4.99996 10.3704 4.99996C10.1658 4.99996 10 4.83414 10 4.62959Z" fill="white"/>
</svg>
