<svg width="25" height="24" viewBox="0 0 25 24" fill="none" xmlns="http://www.w3.org/2000/svg">
<g clip-path="url(#clip0_563_3225)">
<path d="M9.5 1V3H15.5V1H17.5V3H21.5C21.7652 3 22.0196 3.10536 22.2071 3.29289C22.3946 3.48043 22.5 3.73478 22.5 4V20C22.5 20.2652 22.3946 20.5196 22.2071 20.7071C22.0196 20.8946 21.7652 21 21.5 21H3.5C3.23478 21 2.98043 20.8946 2.79289 20.7071C2.60536 20.5196 2.5 20.2652 2.5 20V4C2.5 3.73478 2.60536 3.48043 2.79289 3.29289C2.98043 3.10536 3.23478 3 3.5 3H7.5V1H9.5ZM20.5 10H4.5V19H20.5V10ZM15.536 11.136L16.95 12.55L12 17.5L8.464 13.964L9.88 12.55L12.001 14.672L15.537 11.136H15.536ZM7.5 5H4.5V8H20.5V5H17.5V6H15.5V5H9.5V6H7.5V5Z" fill="#A7A7A7"/>
</g>
<defs>
<clipPath id="clip0_563_3225">
<rect width="24" height="24" fill="white" transform="translate(0.5)"/>
</clipPath>
</defs>
</svg>
