<svg width="46" height="46" viewBox="0 0 46 46" fill="none" xmlns="http://www.w3.org/2000/svg">
<circle cx="23" cy="23" r="23" fill="#F6F6F6"/>
<path d="M33.5 27.8408V32.1135C33.5001 32.4194 33.3882 32.714 33.1869 32.9378C32.9855 33.1616 32.7096 33.298 32.415 33.3194C31.9052 33.3557 31.4887 33.375 31.1667 33.375C20.8568 33.375 12.5 24.7197 12.5 14.0417C12.5 13.7082 12.5175 13.2768 12.5537 12.7488C12.5743 12.4436 12.706 12.1579 12.9221 11.9493C13.1382 11.7408 13.4226 11.6249 13.718 11.625H17.8433C17.988 11.6248 18.1276 11.6804 18.235 11.7809C18.3424 11.8814 18.4099 12.0196 18.4243 12.1688C18.4512 12.4467 18.4757 12.6678 18.499 12.8358C18.7309 14.5116 19.206 16.1415 19.9083 17.6703C20.0192 17.912 19.9468 18.2008 19.7368 18.3554L17.2192 20.2187C18.7585 23.9336 21.617 26.8942 25.2038 28.4885L27.0005 25.8858C27.0739 25.7794 27.1811 25.7031 27.3032 25.6702C27.4254 25.6373 27.5549 25.6499 27.669 25.7057C29.1449 26.4318 30.7182 26.9226 32.3357 27.1617C32.4978 27.1859 32.7113 27.2125 32.9773 27.2391C33.1211 27.2544 33.2543 27.3244 33.3511 27.4355C33.4479 27.5467 33.5013 27.6911 33.5012 27.8408H33.5Z" fill="#131313"/>
</svg>
