<svg width="36" height="36" viewBox="0 0 36 36" fill="none" xmlns="http://www.w3.org/2000/svg">
<circle cx="18" cy="18" r="18" fill="#8E937B"/>
<g clip-path="url(#clip0_511_5519)">
<path d="M24.75 21.315V23.967C24.7501 24.1569 24.6781 24.3397 24.5487 24.4786C24.4192 24.6176 24.2419 24.7022 24.0525 24.7155C23.7247 24.738 23.457 24.75 23.25 24.75C16.6223 24.75 11.25 19.3778 11.25 12.75C11.25 12.543 11.2613 12.2753 11.2845 11.9475C11.2978 11.7581 11.3824 11.5808 11.5214 11.4513C11.6603 11.3219 11.8431 11.2499 12.033 11.25H14.685C14.778 11.2499 14.8678 11.2844 14.9368 11.3468C15.0058 11.4091 15.0492 11.4949 15.0585 11.5875C15.0758 11.76 15.0915 11.8973 15.1065 12.0015C15.2556 13.0417 15.561 14.0534 16.0125 15.0023C16.0838 15.1523 16.0373 15.3315 15.9023 15.4275L14.2838 16.584C15.2733 18.8898 17.1109 20.7274 19.4167 21.717L20.5717 20.1015C20.619 20.0355 20.6878 19.9882 20.7664 19.9677C20.8449 19.9473 20.9281 19.9551 21.0015 19.9897C21.9503 20.4404 22.9617 20.7451 24.0015 20.8935C24.1058 20.9085 24.243 20.925 24.414 20.9415C24.5064 20.951 24.592 20.9944 24.6543 21.0634C24.7165 21.1324 24.7509 21.2221 24.7507 21.315H24.75Z" fill="white"/>
</g>
<defs>
<clipPath id="clip0_511_5519">
<rect width="18" height="18" fill="white" transform="translate(9 9)"/>
</clipPath>
</defs>
</svg>
