<svg width="40" height="40" viewBox="0 0 40 40" fill="none" xmlns="http://www.w3.org/2000/svg">
<circle cx="20" cy="20" r="18.8889" fill="#202020" stroke="white" stroke-width="2.22222"/>
<path fill-rule="evenodd" clip-rule="evenodd" d="M15.9153 12.4656C16.229 11.8382 16.8702 11.4419 17.5717 11.4419H21.9827C22.6841 11.4419 23.3254 11.8382 23.6391 12.4656L24.0531 13.2937H25.3327C26.8669 13.2937 28.1105 14.5374 28.1105 16.0715V25.3308C28.1105 26.8649 26.8669 28.1086 25.3327 28.1086H14.2216C12.6875 28.1086 11.4438 26.8649 11.4438 25.3308V16.0715C11.4438 14.5374 12.6875 13.2937 14.2216 13.2937H15.5012L15.9153 12.4656ZM21.629 20.7012C21.629 21.7239 20.7999 22.553 19.7772 22.553C18.7544 22.553 17.9253 21.7239 17.9253 20.7012C17.9253 19.6784 18.7544 18.8493 19.7772 18.8493C20.7999 18.8493 21.629 19.6784 21.629 20.7012ZM23.4809 20.7012C23.4809 22.7467 21.8227 24.4049 19.7772 24.4049C17.7317 24.4049 16.0735 22.7467 16.0735 20.7012C16.0735 18.6557 17.7317 16.9974 19.7772 16.9974C21.8227 16.9974 23.4809 18.6557 23.4809 20.7012Z" fill="white"/>
</svg>
