<svg width="20" height="20" viewBox="0 0 20 20" fill="none" xmlns="http://www.w3.org/2000/svg">
<g clip-path="url(#clip0_511_4584)">
<path d="M5.38263 3.63798L3.14856 5.36168C2.83012 5.60738 2.6709 5.73022 2.58545 5.90408C2.5 6.07794 2.5 6.27904 2.5 6.68124V13.5271C2.5 15.0034 2.5 15.7416 2.96575 15.9705C3.4315 16.1994 4.01593 15.7485 5.18477 14.8467L5.38263 14.694C5.73516 14.422 5.91143 14.286 6.12155 14.2527C6.33167 14.2194 6.54136 14.2942 6.96074 14.4438L13.0393 16.6123C13.4586 16.7619 13.6683 16.8367 13.8785 16.8033C14.0886 16.77 14.2648 16.634 14.6174 16.362L14.6174 16.362L16.8514 14.6383L16.8514 14.6383C17.1699 14.3926 17.3291 14.2698 17.4145 14.0959C17.5 13.9221 17.5 13.721 17.5 13.3188V6.47291C17.5 4.9966 17.5 4.25844 17.0342 4.02953C16.5685 3.80061 15.9841 4.25152 14.8152 5.15335L14.6174 5.30601C14.2648 5.578 14.0886 5.714 13.8785 5.74732C13.6683 5.78063 13.4586 5.70583 13.0393 5.55622L6.96074 3.38777C6.54136 3.23816 6.33167 3.16336 6.12155 3.19667C5.91143 3.22999 5.73516 3.36599 5.38263 3.63798Z" stroke="#868686" stroke-width="1.5" stroke-linecap="round"/>
<path d="M6.25 4.0835V13.9111" stroke="#868686" stroke-width="1.5" stroke-linecap="round"/>
<path d="M13.7175 6.02368V15.8513" stroke="#868686" stroke-width="1.5" stroke-linecap="round"/>
</g>
<defs>
<clipPath id="clip0_511_4584">
<rect width="20" height="20" fill="white"/>
</clipPath>
</defs>
</svg>
