<svg width="32" height="32" viewBox="0 0 32 32" fill="none" xmlns="http://www.w3.org/2000/svg">
<g clip-path="url(#clip0_645_5916)">
<path fill-rule="evenodd" clip-rule="evenodd" d="M19 4H13.6667C10.8377 4 8.12458 5.12381 6.12419 7.12419C4.12381 9.12458 3 11.8377 3 14.6667C3 23.3333 12.3333 27.3333 19 30V25.3333C21.829 25.3333 24.5421 24.2095 26.5425 22.2091C28.5429 20.2088 29.6667 17.4956 29.6667 14.6667C29.6667 11.8377 28.5429 9.12458 26.5425 7.12419C24.5421 5.12381 21.829 4 19 4ZM11.5 16C12.3284 16 13 15.3284 13 14.5C13 13.6716 12.3284 13 11.5 13C10.6716 13 10 13.6716 10 14.5C10 15.3284 10.6716 16 11.5 16ZM18 14.5C18 15.3284 17.3284 16 16.5 16C15.6716 16 15 15.3284 15 14.5C15 13.6716 15.6716 13 16.5 13C17.3284 13 18 13.6716 18 14.5ZM21.5 16C22.3284 16 23 15.3284 23 14.5C23 13.6716 22.3284 13 21.5 13C20.6716 13 20 13.6716 20 14.5C20 15.3284 20.6716 16 21.5 16Z" fill="white"/>
</g>
<defs>
<clipPath id="clip0_645_5916">
<rect width="32" height="32" fill="white"/>
</clipPath>
</defs>
</svg>
