<svg width="40" height="40" viewBox="0 0 40 40" fill="none" xmlns="http://www.w3.org/2000/svg">
<circle cx="20" cy="20" r="20" fill="#FF534D"/>
<g clip-path="url(#clip0_511_4857)">
<path d="M16.3035 24.6667L13.3335 27V14.6667C13.3335 14.4899 13.4037 14.3203 13.5288 14.1953C13.6538 14.0702 13.8234 14 14.0002 14H26.0002C26.177 14 26.3465 14.0702 26.4716 14.1953C26.5966 14.3203 26.6668 14.4899 26.6668 14.6667V24C26.6668 24.1768 26.5966 24.3464 26.4716 24.4714C26.3465 24.5964 26.177 24.6667 26.0002 24.6667H16.3035ZM15.8422 23.3333H25.3335V15.3333H14.6668V24.2567L15.8422 23.3333ZM17.3335 18.6667H22.6668V20H17.3335V18.6667Z" fill="white"/>
</g>
<defs>
<clipPath id="clip0_511_4857">
<rect width="16" height="16" fill="white" transform="translate(12 12)"/>
</clipPath>
</defs>
</svg>
