<svg width="25" height="25" viewBox="0 0 25 25" fill="none" xmlns="http://www.w3.org/2000/svg">
<path d="M6.67885 15.9415L3.99839 15.072L2.56226 16.5082C2.56226 16.5082 5.11978 18.2974 5.12029 18.2965" stroke="#696969" stroke-width="1.5" stroke-miterlimit="10"/>
<path d="M6.7644 19.9407C6.76356 19.9412 8.5528 22.4987 8.5528 22.4987L9.98893 21.0626L9.12024 18.3853" stroke="#696969" stroke-width="1.5" stroke-miterlimit="10"/>
<path d="M4.04133 19.9888C6.66338 15.663 9.79662 11.6686 13.3734 8.09176L17.3401 4.12508C18.5538 2.91143 21.1567 1.91846 22.1496 2.91143C23.1426 3.9044 22.1496 6.50729 20.936 7.72094L16.9693 11.6876C13.3925 15.2645 9.39807 18.3977 5.07228 21.0197C4.40093 21.4267 3.63442 20.6602 4.04133 19.9888Z" stroke="#696969" stroke-width="1.5" stroke-miterlimit="10"/>
<path d="M11.2324 10.2585L4.27441 6.40301L5.17336 5.50403L14.9161 6.54891" stroke="#696969" stroke-width="1.5" stroke-miterlimit="10"/>
<path d="M18.5121 10.1445L19.557 19.8873L18.658 20.7863L14.8025 13.8283" stroke="#696969" stroke-width="1.5" stroke-miterlimit="10"/>
<path d="M7.47827 5.84011L9.1371 4.18127" stroke="#696969" stroke-width="1.5" stroke-miterlimit="10"/>
<path d="M20.8797 15.9235L19.2581 17.5451" stroke="#696969" stroke-width="1.5" stroke-miterlimit="10"/>
<path d="M12.2698 4.64465L10.7852 6.12932" stroke="#696969" stroke-width="1.5" stroke-miterlimit="10"/>
<path d="M18.9319 14.2756L20.4165 12.7909" stroke="#696969" stroke-width="1.5" stroke-miterlimit="10"/>
</svg>
