<svg width="25" height="25" viewBox="0 0 25 25" fill="none" xmlns="http://www.w3.org/2000/svg">
<circle cx="12.5801" cy="12.842" r="12" fill="black"/>
<path fill-rule="evenodd" clip-rule="evenodd" d="M12.5801 7.84204C12.0278 7.84204 11.5801 8.28976 11.5801 8.84204V11.842L8.58008 11.842C8.02779 11.842 7.58008 12.2898 7.58008 12.842C7.58008 13.3943 8.02779 13.842 8.58008 13.842H11.5801V16.842C11.5801 17.3943 12.0278 17.842 12.5801 17.842C13.1324 17.842 13.5801 17.3943 13.5801 16.842V13.842H16.5801C17.1324 13.842 17.5801 13.3943 17.5801 12.842C17.5801 12.2898 17.1324 11.842 16.5801 11.842L13.5801 11.842V8.84204C13.5801 8.28976 13.1324 7.84204 12.5801 7.84204Z" fill="white"/>
</svg>
