<svg width="20" height="20" viewBox="0 0 20 20" fill="none" xmlns="http://www.w3.org/2000/svg">
<g clip-path="url(#clip0_511_6045)">
<path d="M12.0833 1.66667C12.5755 1.6665 13.0597 1.7909 13.4909 2.02828C13.9221 2.26566 14.2862 2.60829 14.5493 3.02428C14.8124 3.44027 14.966 3.91607 14.9956 4.40738C15.0253 4.89869 14.9302 5.38952 14.7191 5.83417L17.5 5.83334C17.721 5.83334 17.9329 5.92113 18.0892 6.07741C18.2455 6.23369 18.3333 6.44566 18.3333 6.66667V10C18.3333 10.221 18.2455 10.433 18.0892 10.5893C17.9329 10.7455 17.721 10.8333 17.5 10.8333H16.6666V17.5C16.6666 17.721 16.5788 17.933 16.4225 18.0893C16.2663 18.2455 16.0543 18.3333 15.8333 18.3333H4.16663C3.94561 18.3333 3.73365 18.2455 3.57737 18.0893C3.42109 17.933 3.33329 17.721 3.33329 17.5V10.8333H2.49996C2.27895 10.8333 2.06698 10.7455 1.9107 10.5893C1.75442 10.433 1.66663 10.221 1.66663 10V6.66667C1.66663 6.44566 1.75442 6.23369 1.9107 6.07741C2.06698 5.92113 2.27895 5.83334 2.49996 5.83334L5.28079 5.83417C4.98392 5.21056 4.91798 4.50184 5.09471 3.83417C5.27144 3.1665 5.67937 2.58321 6.24587 2.18813C6.81238 1.79305 7.50071 1.61183 8.18832 1.67673C8.87593 1.74162 9.5182 2.04842 10.0008 2.5425C10.2717 2.26461 10.5955 2.0439 10.9532 1.89346C11.311 1.74302 11.6952 1.6659 12.0833 1.66667ZM15 10.8333H4.99996V16.6667H15V10.8333ZM16.6666 7.5H3.33329V9.16667H16.6666V7.5ZM7.91663 3.33334C7.59561 3.3335 7.28696 3.45715 7.05464 3.67868C6.82231 3.9002 6.68412 4.20262 6.66869 4.52327C6.65326 4.84391 6.76179 5.1582 6.97177 5.401C7.18176 5.64381 7.47711 5.79653 7.79663 5.8275L7.91663 5.83334H9.16663V4.58334C9.16661 4.2726 9.05086 3.97301 8.84194 3.74299C8.63303 3.51296 8.34593 3.369 8.03663 3.33917L7.91663 3.33334ZM12.0833 3.33334L11.9633 3.33917C11.6744 3.36684 11.4042 3.49415 11.1989 3.69926C10.9937 3.90437 10.8662 4.1745 10.8383 4.46334L10.8333 4.58334V5.83334H12.0833L12.2033 5.8275C12.5125 5.79753 12.7994 5.6535 13.0082 5.42349C13.217 5.19348 13.3327 4.89397 13.3327 4.58334C13.3327 4.2727 13.217 3.97319 13.0082 3.74318C12.7994 3.51317 12.5125 3.36915 12.2033 3.33917L12.0833 3.33334Z" fill="#202020"/>
</g>
<defs>
<clipPath id="clip0_511_6045">
<rect width="20" height="20" fill="white"/>
</clipPath>
</defs>
</svg>
