<svg width="20" height="20" viewBox="0 0 20 20" fill="none" xmlns="http://www.w3.org/2000/svg">
<path d="M16.6667 10.1482C16.6667 9.60009 16.6213 9.20009 16.5231 8.78528H10.1361V11.2593H13.8851C13.8096 11.8742 13.4014 12.8001 12.4944 13.4223L12.4816 13.5051L14.5011 15.0383L14.641 15.0519C15.9259 13.889 16.6667 12.1779 16.6667 10.1482Z" fill="#4285F4"/>
<path d="M10.1361 16.6667C11.9728 16.6667 13.5147 16.0741 14.6409 15.0519L12.4943 13.4222C11.9199 13.8148 11.1489 14.0889 10.1361 14.0889C8.33714 14.0889 6.81032 12.926 6.26605 11.3186L6.18627 11.3252L4.08642 12.9178L4.05896 12.9927C5.17762 15.1704 7.47542 16.6667 10.1361 16.6667Z" fill="#34A853"/>
<path d="M6.26607 11.3186C6.12246 10.9037 6.03934 10.4593 6.03934 10C6.03934 9.54075 6.12246 9.09632 6.25851 8.6815L6.25471 8.59316L4.12854 6.97498L4.05898 7.0074C3.59793 7.91112 3.33337 8.92596 3.33337 10C3.33337 11.0741 3.59793 12.0889 4.05898 12.9926L6.26607 11.3186Z" fill="#FBBC05"/>
<path d="M10.1361 5.91114C11.4134 5.91114 12.2751 6.45188 12.7665 6.90376L14.6863 5.06671C13.5072 3.99264 11.9728 3.33337 10.1361 3.33337C7.47542 3.33337 5.17762 4.82966 4.05896 7.00743L6.2585 8.68153C6.81032 7.07412 8.33714 5.91114 10.1361 5.91114Z" fill="#EB4335"/>
</svg>
