<svg width="32" height="32" viewBox="0 0 32 32" fill="none" xmlns="http://www.w3.org/2000/svg">
<path d="M29.1706 10.3877C29.2772 10.9085 29.3332 11.4477 29.3332 12C29.3332 12 29.3332 12 29.3332 12C29.3332 21.8015 20.4379 26.4082 17.1785 27.7672C16.4192 28.0837 15.5805 28.0837 14.8212 27.7672C14.4138 27.5973 13.9183 27.3767 13.3631 27.1015C9.47695 25.1754 2.6665 20.5764 2.6665 12.0001C2.6665 7.58184 6.24823 4 10.6665 4C12.7155 4 14.5845 4.77028 15.9998 6.03705C17.4152 4.77028 19.2842 4 21.3332 4C23.0597 4 24.6585 4.54692 25.9657 5.47697C27.5856 6.62947 28.7578 8.37028 29.1706 10.3877Z" fill="white"/>
</svg>
