<svg width="32" height="32" viewBox="0 0 32 32" fill="none" xmlns="http://www.w3.org/2000/svg">
<path d="M15.4997 6.5959L15.9998 7.04358L16.5 6.5959C17.7832 5.44744 19.4758 4.75 21.3332 4.75C22.8988 4.75 24.3465 5.2454 25.5309 6.08808C27.0004 7.13357 28.0622 8.71178 28.4359 10.5381C28.5324 11.0097 28.5832 11.4985 28.5832 12C28.5832 16.6473 26.4824 20.0658 23.9565 22.5106C21.4195 24.9661 18.4759 26.4136 16.8899 27.0749C16.3153 27.3145 15.6844 27.3145 15.1098 27.0749C14.7158 26.9106 14.2353 26.6967 13.6962 26.4295C9.86091 24.5286 3.4165 20.1186 3.4165 12.0001C3.4165 7.99604 6.66245 4.75 10.6665 4.75C12.5238 4.75 14.2165 5.44744 15.4997 6.5959Z" fill="#F8062B" stroke="#F8062B" stroke-width="1.5"/>
</svg>
