<svg width="159" height="114" viewBox="0 0 159 114" fill="none" xmlns="http://www.w3.org/2000/svg">
<g clip-path="url(#clip0_511_6406)">
<path d="M144.11 51.0486C143.968 51.0741 143.851 51.1744 143.807 51.3123L141.485 58.3944C141.448 58.5062 141.463 58.6289 141.527 58.7285C141.591 58.8281 141.695 58.8937 141.811 58.9076L150.515 59.9442C150.654 59.961 150.79 59.9015 150.873 59.7926C150.883 59.7781 150.894 59.7628 150.903 59.7468C150.98 59.6082 150.967 59.4366 150.869 59.3121L144.485 51.1936C144.396 51.0798 144.252 51.0251 144.109 51.0497L144.11 51.0486Z" fill="url(#paint0_linear_511_6406)"/>
<path d="M147.284 53.8508C152.393 44.4024 148.888 32.5774 139.455 27.439C130.023 22.3006 118.234 25.7945 113.125 35.243C108.016 44.6914 111.52 56.5163 120.953 61.6547C130.386 66.7932 142.174 63.2992 147.284 53.8508Z" fill="url(#paint1_linear_511_6406)"/>
<path d="M122.336 48.8401C123.009 48.5207 123.295 47.7147 122.975 47.04C122.655 46.3652 121.851 46.0771 121.178 46.3965C120.506 46.7159 120.22 47.5219 120.54 48.1967C120.859 48.8714 121.664 49.1595 122.336 48.8401Z" fill="white"/>
<path d="M127.063 47.4307C127.724 47.0876 127.981 46.2719 127.638 45.6089C127.295 44.9458 126.481 44.6865 125.82 45.0296C125.159 45.3727 124.902 46.1884 125.245 46.8514C125.589 47.5145 126.403 47.7738 127.063 47.4307Z" fill="white"/>
<path d="M132.432 45.195C132.627 44.4748 132.202 43.7316 131.483 43.5351C130.765 43.3386 130.024 43.7632 129.829 44.4835C129.635 45.2037 130.059 45.9469 130.778 46.1434C131.497 46.3398 132.237 45.9152 132.432 45.195Z" fill="white"/>
<path d="M136.999 44.0978C137.354 43.4419 137.11 42.6211 136.456 42.2644C135.801 41.9077 134.983 42.1503 134.628 42.8061C134.273 43.462 134.517 44.2828 135.171 44.6395C135.826 44.9961 136.644 44.7536 136.999 44.0978Z" fill="white"/>
<path d="M139.206 42.4436C139.419 43.1599 140.17 43.5683 140.883 43.3569C141.596 43.1455 142.003 42.393 141.791 41.6775C141.579 40.962 140.828 40.5528 140.114 40.7642C139.401 40.9756 138.994 41.728 139.206 42.4436Z" fill="white"/>
<path d="M110.479 24.7677C110.479 24.7677 114.822 20.6897 115.296 20.5414C115.77 20.393 122.386 17.5862 124.303 15.7324C126.22 13.8776 125.984 11.1324 125.312 9.98551C124.64 8.83837 123.258 8.74938 123.258 8.74938L117.325 11.8709C117.325 11.8709 116.347 11.7852 114.836 12.4348C113.274 13.1067 102.152 19.1288 101.014 19.4852C99.8766 19.8417 96.9028 20.9837 94.9241 24.6329C92.9454 28.282 88.1883 36.3536 85.981 38.6119C83.7738 40.8703 80.5734 44.2761 79.6968 47.789C78.8201 51.3011 73.6556 66.7061 73.1007 67.9245C72.5459 69.1429 68.2701 67.0491 68.2701 67.0491L71.9839 71.291L94.2372 41.0354L109.948 26.3957L110.479 24.7677Z" fill="#FFB18F"/>
<path d="M115.627 13.9619C115.627 13.9619 116.667 11.9652 116.185 10.7586C115.702 9.552 114.911 8.0252 113.335 8.31061C111.759 8.59603 108.918 11.158 108.918 11.158C107.929 11.9899 103.478 15.0573 103.478 15.0573C100.134 17.6729 95.4926 20.7992 92.7818 23.112C90.0709 25.424 88.0378 28.568 87.413 30.2266C86.788 31.8844 84.4112 38.5827 83.6855 40.5853C82.9597 42.588 82.5025 45.4466 82.5025 45.4466L89.7702 39.4076L115.627 13.9621L115.627 13.9619Z" fill="#FFB18F"/>
<path d="M96.2734 22.8751C96.2734 22.8751 97.9052 17.5359 96.6865 15.3074C95.4671 13.0791 94.3107 12.711 92.8593 13.0622C91.4079 13.4134 91.6897 15.3088 91.4489 16.5333C91.2082 17.7577 89.0697 21.5613 88.0433 24.5983C87.0177 27.635 83.6088 34.0301 82.6213 38.5175C81.6336 43.0041 80.0777 47.6697 80.6303 48.4361C81.1829 49.2026 96.2734 22.8751 96.2734 22.8751Z" fill="#FFB18F"/>
<path d="M91.3184 18.6094C91.3184 18.6094 91.9709 19.0312 92.7999 18.3537C93.6288 17.6763 94.5489 15.2992 94.489 15.1089C94.4291 14.9187 93.3838 13.5761 92.6305 13.4992C91.8772 13.4223 91.768 14.3762 91.7116 14.8738C91.6561 15.3711 91.4854 16.5959 91.4277 17.0211C91.3689 17.4457 90.6653 18.1887 91.3178 18.6104L91.3184 18.6094Z" fill="#F9ECE8"/>
<path d="M108.102 13.0349C108.102 13.0349 109.408 13.8782 111.054 13.1534C112.701 12.4284 113.849 11.4415 113.979 11.1915C114.108 10.9416 113.607 9.01039 113.547 8.82015C113.487 8.62992 113.178 8.30893 112.959 8.27393C112.739 8.23813 111.659 8.94256 110.321 9.98859C109.375 10.7288 107.876 11.7972 107.757 12.1755C107.638 12.5539 107.822 12.8091 108.101 13.0354L108.102 13.0349Z" fill="#F9ECE8"/>
<path d="M117.57 12.13C117.57 12.13 118.7 12.634 120.561 12.2597C122.422 11.8846 123.53 11.4334 123.53 11.4334C123.53 11.4334 123.955 10.465 123.995 9.93008C124.035 9.39518 123.486 8.6829 123.486 8.6829C123.322 8.78318 123.452 8.54016 122.739 8.91739C122.026 9.29463 118.021 11.3179 117.793 11.4636C117.622 11.5732 116.978 11.8993 117.57 12.1308L117.57 12.13Z" fill="#F9ECE8"/>
<path d="M114.765 12.2695C114.12 12.5578 111.901 13.7211 109.33 15.0676C105.893 16.8672 101.616 19.1081 100.962 19.3125C98.3547 20.13 96.155 21.9886 94.7684 24.5452C92.7211 28.32 88.0054 36.2836 85.8548 38.4848C84.1444 40.2353 82.471 42.0748 81.2392 43.9879C82.8611 41.8354 84.9464 39.9274 86.1104 38.7364C88.2853 36.5104 93.0269 28.5076 95.0827 24.7171C96.8936 21.3783 99.611 20.1122 101.069 19.6545C101.754 19.4402 105.867 17.2857 109.496 15.3852C111.954 14.0976 114.277 12.881 114.911 12.5973C115.857 12.1731 116.8 11.9629 117.348 11.8679C116.592 11.8376 115.6 11.8946 114.764 12.2697L114.765 12.2695Z" fill="#131313"/>
<path d="M87.2456 30.1608C86.8389 31.2388 85.6774 34.4895 84.7432 37.1025C84.2219 38.561 83.7719 39.8203 83.5171 40.5224C83.4836 40.6157 83.5314 40.7183 83.6246 40.7521C83.6629 40.7662 83.7032 40.7665 83.7392 40.755C83.7904 40.7389 83.8339 40.6997 83.8537 40.6456C84.1082 39.9427 84.5588 38.6823 85.0801 37.2238C86.0131 34.6129 87.1749 31.3629 87.5799 30.2881C88.2549 28.4979 90.3482 25.4212 92.8915 23.2519L97.0714 19.7858L92.6662 22.9729C90.0712 25.1865 87.9368 28.328 87.2456 30.1608Z" fill="#131313"/>
<path d="M100.561 54.5611C100.319 54.6238 100.319 54.6239 100.319 54.624L100.319 54.6242L100.319 54.6246L100.319 54.6256L100.32 54.6285L100.322 54.6375C100.325 54.6449 100.328 54.6553 100.332 54.6684C100.339 54.6945 100.351 54.7318 100.368 54.7794C100.402 54.8746 100.454 55.0112 100.532 55.1828C100.689 55.5262 100.949 56.0099 101.363 56.5848C101.873 57.291 102.443 58.2448 103.037 59.2382C103.38 59.8133 103.732 60.4016 104.084 60.9628L104.085 60.9628C104.235 61.2029 104.38 61.4572 104.533 61.7242C104.617 61.8727 104.704 62.0251 104.796 62.1812C105.047 62.6109 105.325 63.0541 105.657 63.4631C106.325 64.2866 107.215 64.9748 108.559 65.1623C109.847 65.3424 112.112 65.3868 114.415 65.256C116.715 65.1253 119.091 64.818 120.59 64.2793C122.011 63.7688 124.684 63.4929 127.307 63.4837C128.614 63.4791 129.897 63.5407 130.993 63.6696C132.095 63.7994 132.982 63.9948 133.512 64.2456C134.605 64.7633 135.729 65.7496 136.511 66.8575C137.301 67.9754 137.7 69.1538 137.458 70.0656C137.209 71.0031 136.616 71.5967 135.805 71.9545C134.983 72.317 133.936 72.4363 132.807 72.3989C131.605 72.3591 130.16 72.8103 128.699 73.347C128.281 73.5003 127.862 73.6609 127.444 73.8209C126.379 74.2287 125.323 74.633 124.33 74.9058C121.557 75.6677 115.146 76.6967 111.294 77.1342C108.033 77.5047 105.733 79.1608 103.411 80.8335C102.932 81.1789 102.451 81.525 101.961 81.8606L102.103 82.0668L101.961 81.8606C100.536 82.837 97.604 84.2686 94.5111 85.5081C91.4155 86.7488 88.2029 87.7789 86.2145 87.9731C85.4139 88.0512 83.2422 88.5137 80.4365 89.1601C77.621 89.8087 74.1441 90.6482 70.7166 91.488C67.6455 92.2405 64.6169 92.9924 62.1379 93.6079C59.4353 94.2789 57.3857 94.7878 56.6457 94.9585L49.5408 70.9863L50.0794 70.8807L52.2127 70.4625C53.9792 70.1162 56.3371 69.6538 58.7028 69.1896C63.4288 68.2622 68.1994 67.325 68.3291 67.2948L68.3292 67.2948C69.2714 67.075 70.2572 66.4897 71.2084 65.7347C72.1632 64.9769 73.1013 64.0336 73.9485 63.0745C75.6408 61.159 76.9919 59.1564 77.4077 58.3915L77.4077 58.3914C78.0215 57.2617 79.1504 55.5466 80.3429 53.7348C80.5329 53.4462 80.7244 53.1552 80.9158 52.8637C82.2999 50.755 83.6758 48.6174 84.3052 47.2537C84.9062 45.9517 86.0911 44.5272 87.4929 43.0706C88.3645 42.165 89.3055 41.2611 90.2294 40.3736C90.7921 39.8331 91.3485 39.2987 91.879 38.7737C93.2843 37.3829 95.5448 34.4945 97.6295 31.7822C97.9812 31.3248 98.328 30.8721 98.6652 30.4318C99.331 29.5628 99.9596 28.7423 100.515 28.0291C101.355 26.9499 102.016 26.133 102.378 25.7669C103.08 25.0586 104.384 24.5155 105.906 24.051C106.826 23.7704 107.793 23.5273 108.725 23.2927C109.335 23.1393 109.931 22.9895 110.489 22.8352C111.856 22.4577 114.602 22.0622 117.068 21.7852C118.297 21.6471 119.45 21.5392 120.318 21.4781C120.752 21.4475 121.113 21.4288 121.374 21.4238C121.505 21.4212 121.608 21.4222 121.68 21.4263C121.717 21.4283 121.742 21.4309 121.757 21.4334C121.758 21.4335 121.759 21.4336 121.759 21.4337C121.82 21.4606 121.884 21.4707 121.934 21.4755C121.995 21.4815 122.063 21.482 122.135 21.4792C122.279 21.4736 122.457 21.4537 122.657 21.4243C123.057 21.3655 123.566 21.2653 124.104 21.149C124.996 20.9562 125.981 20.7161 126.704 20.5399C126.717 20.5367 126.731 20.5334 126.744 20.5302L126.744 20.5314L127.115 20.4418C127.808 20.2744 128.215 20.3652 128.463 20.6112C128.729 20.8752 128.892 21.3884 128.908 22.2597C128.924 23.1081 128.761 23.6504 128.541 24.0152C128.321 24.3789 128.029 24.5909 127.738 24.7551L100.561 54.5611ZM100.561 54.5611L100.311 54.5576L100.311 54.5574L100.311 54.5568L100.311 54.5544L100.311 54.5448L100.311 54.5073L100.314 54.3645C100.315 54.2411 100.318 54.0641 100.322 53.8493C100.328 53.4197 100.339 52.8389 100.351 52.2345C100.376 51.0332 100.41 49.7174 100.449 49.3276C100.473 49.0911 100.597 48.7865 100.742 48.4697C100.822 48.2945 100.919 48.0963 101.02 47.8883C101.104 47.7173 101.19 47.5397 101.274 47.3627C101.657 46.55 102.021 45.6596 102.064 44.8638L102.064 44.8637C102.156 43.1632 102.464 42.1874 103.281 41.6866L103.281 41.6865C103.338 41.6518 103.424 41.5765 103.54 41.4501C103.652 41.3271 103.78 41.1682 103.921 40.9794C104.203 40.6021 104.526 40.117 104.858 39.5872C105.521 38.5279 106.212 37.3035 106.664 36.4352C107.117 35.5641 107.433 34.9191 107.636 34.4926C107.737 34.2794 107.81 34.1208 107.857 34.0159C107.88 33.9634 107.898 33.9244 107.909 33.8987L107.921 33.8701L107.924 33.8633L107.925 33.8617L100.561 54.5611ZM100.561 54.5611L100.311 54.5576L100.31 54.5913L100.319 54.6238L100.561 54.5611ZM108.045 33.7352L108.155 33.9594C108.045 33.7352 108.045 33.7352 108.045 33.7351L108.045 33.735L108.046 33.7344L108.051 33.7321L108.07 33.7229L108.143 33.6867L108.421 33.5489C108.661 33.4298 109.005 33.2588 109.419 33.0513C110.249 32.6364 111.36 32.0758 112.49 31.4932C113.621 30.9102 114.769 30.3061 115.671 29.8037C116.122 29.5523 116.51 29.3278 116.802 29.145C116.948 29.0535 117.068 28.974 117.159 28.9079C117.255 28.8384 117.304 28.7944 117.321 28.774L117.366 28.722L117.43 28.6999L117.511 28.9364L117.43 28.6998L117.43 28.6998L117.431 28.6996L117.433 28.6989L117.442 28.696L117.475 28.6844L117.605 28.6396C117.718 28.6006 117.883 28.5437 118.087 28.4726C118.496 28.3304 119.064 28.131 119.705 27.9025C120.989 27.4451 122.557 26.8724 123.706 26.4081L123.71 26.4064L123.711 26.4064L123.711 26.4062L123.713 26.4055L123.72 26.4027L123.749 26.3916L123.859 26.3493C123.954 26.3127 124.09 26.2599 124.256 26.1956C124.588 26.0668 125.036 25.8914 125.504 25.7053C126.45 25.3287 127.445 24.9197 127.738 24.7552L108.045 33.7352ZM108.045 33.7352L107.962 33.7761M108.045 33.7352L107.962 33.7761M107.962 33.7761L107.925 33.8614M107.962 33.7761L107.925 33.8614M107.925 33.8614C107.925 33.8614 107.925 33.8614 107.925 33.8614L107.925 33.8614Z" fill="#FFB18F" stroke="black" stroke-width="0.5"/>
<path d="M108.634 22.8712C106.141 23.4986 103.315 24.2097 102.072 25.4627C101.439 26.1014 99.9939 27.9874 98.3203 30.1718C96.0349 33.1554 93.1905 36.8681 91.5759 38.4664C91.0522 38.9841 90.5117 39.5041 89.9383 40.0549C87.4786 42.4179 84.9343 44.8613 83.9143 47.0723C83.8726 47.1619 83.9121 47.2687 84.0015 47.3106C84.0431 47.3299 84.0892 47.332 84.13 47.3191C84.1766 47.3052 84.2165 47.2715 84.239 47.2235C85.2311 45.0744 87.7499 42.6543 90.186 40.3149C90.7602 39.7639 91.3021 39.2426 91.8269 38.7229C93.4593 37.1079 96.3118 33.384 98.6041 30.3914C100.27 28.217 101.708 26.3393 102.326 25.7165C103.499 24.5336 106.274 23.8356 108.721 23.2191C109.338 23.0634 109.921 22.917 110.469 22.7661C111.066 22.6012 112.233 22.2783 113.579 21.9812C112.302 22.0885 110.986 22.2511 110.373 22.4205C109.83 22.5702 109.249 22.717 108.634 22.8712Z" fill="#131313"/>
<path d="M122.224 21.5542C122.224 21.5542 123.82 21.9939 125.171 21.9876C126.522 21.9811 126.677 22.1416 127.091 21.803C127.505 21.4644 128.48 20.9059 128.445 20.4687C128.409 20.0318 128.366 20.0237 127.555 20.0279C126.744 20.0321 124.125 20.6442 123.367 20.882C122.609 21.1198 121.726 21.2921 122.224 21.5542Z" fill="#F9ECE8"/>
<path d="M129.517 72.9006C129.517 72.9006 128.716 72.9046 128.746 71.8048C128.776 70.7051 128.702 68.7903 129.475 68.1812C130.248 67.572 133.052 66.7068 133.656 66.6787C134.26 66.6517 135.374 67.3877 135.976 69.0653C136.578 70.7429 136.421 71.2255 136.055 71.7835C135.688 72.3415 135.479 72.5937 135.066 72.6056C134.654 72.6179 130.085 73.1701 129.516 72.9008L129.517 72.9006Z" fill="#F9ECE8"/>
<path d="M57.3009 65.6453C59.6688 65.2091 61.9886 66.6136 62.6996 68.914L70.4319 93.9301C71.2052 96.432 69.8078 99.0878 67.3079 99.8674L35.8289 109.684C33.2994 110.473 30.6135 109.04 29.8606 106.5L21.3006 77.6179C20.4986 74.9121 22.2187 72.108 24.9942 71.5967L57.3009 65.6453Z" fill="black" stroke="black" stroke-width="0.5"/>
</g>
<defs>
<linearGradient id="paint0_linear_511_6406" x1="160.501" y1="70.5001" x2="150.266" y2="55.4587" gradientUnits="userSpaceOnUse">
<stop stop-color="#6DB3E6"/>
<stop offset="1" stop-color="#BEBCF3"/>
</linearGradient>
<linearGradient id="paint1_linear_511_6406" x1="113.097" y1="35.2952" x2="145.434" y2="57.0984" gradientUnits="userSpaceOnUse">
<stop stop-color="#6DB3E6"/>
<stop offset="1" stop-color="#BEBCF3"/>
</linearGradient>
<clipPath id="clip0_511_6406">
<rect width="141.907" height="76.7548" fill="white" transform="translate(0.878906 40.3242) rotate(-16.509)"/>
</clipPath>
</defs>
</svg>
