<svg width="36" height="36" viewBox="0 0 36 36" fill="none" xmlns="http://www.w3.org/2000/svg">
<rect x="0.782609" y="0.782609" width="34.4348" height="34.4348" rx="17.2174" fill="#202020" stroke="white" stroke-width="1.56522"/>
<g clip-path="url(#clip0_511_3885)">
<path d="M17.0867 12.3908H21.7823L23.3475 13.956H26.478C26.6855 13.956 26.8846 14.0385 27.0314 14.1852C27.1781 14.332 27.2606 14.5311 27.2606 14.7386V25.6952C27.2606 25.9027 27.1781 26.1018 27.0314 26.2485C26.8846 26.3953 26.6855 26.4778 26.478 26.4778H12.391C12.1834 26.4778 11.9844 26.3953 11.8376 26.2485C11.6909 26.1018 11.6084 25.9027 11.6084 25.6952V14.7386C11.6084 14.5311 11.6909 14.332 11.8376 14.1852C11.9844 14.0385 12.1834 13.956 12.391 13.956H15.5214L17.0867 12.3908ZM19.4345 24.9125C20.6798 24.9125 21.8742 24.4178 22.7548 23.5372C23.6354 22.6566 24.1301 21.4623 24.1301 20.2169C24.1301 18.9715 23.6354 17.7772 22.7548 16.8966C21.8742 16.016 20.6798 15.5212 19.4345 15.5212C18.1891 15.5212 16.9948 16.016 16.1142 16.8966C15.2336 17.7772 14.7388 18.9715 14.7388 20.2169C14.7388 21.4623 15.2336 22.6566 16.1142 23.5372C16.9948 24.4178 18.1891 24.9125 19.4345 24.9125ZM19.4345 23.3473C18.6042 23.3473 17.808 23.0175 17.2209 22.4304C16.6339 21.8434 16.3041 21.0471 16.3041 20.2169C16.3041 19.3867 16.6339 18.5904 17.2209 18.0033C17.808 17.4163 18.6042 17.0865 19.4345 17.0865C20.2647 17.0865 21.061 17.4163 21.648 18.0033C22.2351 18.5904 22.5649 19.3867 22.5649 20.2169C22.5649 21.0471 22.2351 21.8434 21.648 22.4304C21.061 23.0175 20.2647 23.3473 19.4345 23.3473Z" fill="white"/>
</g>
<defs>
<clipPath id="clip0_511_3885">
<rect width="18.7826" height="18.7826" fill="white" transform="translate(10.043 10.043)"/>
</clipPath>
</defs>
</svg>
