<svg width="24" height="24" viewBox="0 0 24 24" fill="none" xmlns="http://www.w3.org/2000/svg">
<path d="M7.71202 10.7561H6.50416V11.7608H2.83301V22.307H11.3832V11.7608H7.71202V10.7561ZM10.1753 12.9687V21.0991H4.04087V12.9687H6.50416V13.9734H7.71202V12.9687H10.1753Z" fill="#202020"/>
<path d="M15.7308 16.6307L14.8774 17.4855L16.5802 19.1851L18.9068 16.8627L18.0535 16.0078L16.5802 17.4785L15.7308 16.6307Z" fill="#202020"/>
<path d="M17.4957 10.7561H16.2878V11.7608H12.6167V22.307H21.1669V11.7608H17.4957V10.7561ZM19.959 12.9687V21.0991H13.8246V12.9687H16.2878V13.9734H17.4957V12.9687H19.959Z" fill="#202020"/>
<path d="M7.71202 1.69287H6.50416V2.69757H2.83301V9.62678H11.3832V2.69757H7.71202V1.69287ZM10.1753 3.90544V8.41892H4.04087V3.90544H6.50416V4.91014H7.71202V3.90544H10.1753Z" fill="#202020"/>
<path d="M17.4957 2.69757V1.69287H16.2878V2.69757H12.6167V9.62678H21.1669V2.69757H17.4957ZM19.959 8.41892H13.8246V3.90544H16.2878V4.91014H17.4957V3.90544H19.959V8.41892Z" fill="#202020"/>
</svg>
