<svg width="20" height="20" viewBox="0 0 20 20" fill="none" xmlns="http://www.w3.org/2000/svg">
<path d="M6.578 17.175C6.75935 17.175 6.90835 17.116 7.025 16.998C7.14165 16.8798 7.2 16.7305 7.2 16.55V10.225C7.68335 10.1583 8.09585 9.9375 8.4375 9.5625C8.77915 9.1875 8.95 8.75565 8.95 8.267V4.425C8.95 4.25835 8.89 4.12085 8.77 4.0125C8.65 3.90415 8.51 3.85 8.35 3.85C8.18335 3.85 8.04585 3.90415 7.9375 4.0125C7.82915 4.12085 7.775 4.25525 7.775 4.41575V7.425H7.225V4.41575C7.225 4.25525 7.17085 4.12085 7.0625 4.0125C6.95415 3.90415 6.81665 3.85 6.65 3.85C6.48335 3.85 6.34585 3.90415 6.2375 4.0125C6.12915 4.12085 6.075 4.25525 6.075 4.41575V7.425H5.35V4.41575C5.35 4.25525 5.29585 4.12085 5.1875 4.0125C5.07915 3.90415 4.94165 3.85 4.775 3.85C4.60835 3.85 4.47085 3.90415 4.3625 4.0125C4.25415 4.12085 4.2 4.25835 4.2 4.425V8.267C4.2 8.75565 4.36665 9.1875 4.7 9.5625C5.03335 9.9375 5.45 10.1583 5.95 10.225V16.55C5.95 16.7305 6.00935 16.8798 6.128 16.998C6.2465 17.116 6.3965 17.175 6.578 17.175ZM12.903 17.175C13.0843 17.175 13.2334 17.116 13.35 16.998C13.4667 16.8798 13.525 16.7305 13.525 16.55V10.525C14.1083 10.2916 14.5666 9.87585 14.9 9.2775C15.2333 8.67935 15.4 7.9785 15.4 7.175C15.4 6.225 15.1692 5.43335 14.7075 4.8C14.2457 4.16665 13.6665 3.85 12.97 3.85C12.2733 3.85 11.7 4.16665 11.25 4.8C10.8 5.43335 10.575 6.225 10.575 7.175C10.575 8.025 10.725 8.74165 11.025 9.325C11.325 9.90835 11.7416 10.3083 12.275 10.525V16.55C12.275 16.7305 12.3343 16.8798 12.453 16.998C12.5715 17.116 12.7215 17.175 12.903 17.175ZM1.5 20C1.1 20 0.75 19.85 0.45 19.55C0.15 19.25 0 18.9 0 18.5V1.5C0 1.1 0.15 0.75 0.45 0.45C0.75 0.15 1.1 0 1.5 0H18.5C18.9 0 19.25 0.15 19.55 0.45C19.85 0.75 20 1.1 20 1.5V18.5C20 18.9 19.85 19.25 19.55 19.55C19.25 19.85 18.9 20 18.5 20H1.5ZM1.5 18.5H18.5V1.5H1.5V18.5Z" fill="black"/>
</svg>
