<svg width="22" height="24" viewBox="0 0 22 24" fill="none" xmlns="http://www.w3.org/2000/svg">
<path d="M2.3335 24C1.7835 24 1.31272 23.8041 0.921163 23.4123C0.529383 23.0208 0.333496 22.55 0.333496 22V9C0.333496 8.68333 0.404383 8.38333 0.546163 8.1C0.687716 7.81667 0.883496 7.58333 1.1335 7.4L9.80016 0.9C10.1486 0.633333 10.5468 0.5 10.9948 0.5C11.4428 0.5 11.8446 0.633333 12.2002 0.9L20.8668 7.4C21.1168 7.58333 21.3127 7.81667 21.4545 8.1C21.596 8.38333 21.6668 8.68333 21.6668 9V22C21.6668 22.55 21.471 23.0208 21.0795 23.4123C20.6877 23.8041 20.2168 24 19.6668 24H2.3335ZM2.3335 22H19.6668V8.86667L11.0002 2.56667L2.3335 8.86667V22ZM5.66683 18H16.3335V19.3333C16.3335 19.5111 16.4002 19.6667 16.5335 19.8C16.6668 19.9333 16.8224 20 17.0002 20C17.178 20 17.3335 19.9333 17.4668 19.8C17.6002 19.6667 17.6668 19.5111 17.6668 19.3333V14.6667C17.6668 13.9333 17.4057 13.3055 16.8835 12.7833C16.3613 12.2611 15.7335 12 15.0002 12H11.3335C11.0502 12 10.8127 12.0958 10.6212 12.2873C10.4294 12.4791 10.3335 12.7167 10.3335 13V16.6667H5.66683V11.3333C5.66683 11.1555 5.60016 11 5.46683 10.8667C5.3335 10.7333 5.17796 10.6667 5.00016 10.6667C4.82236 10.6667 4.66683 10.7333 4.5335 10.8667C4.40016 11 4.3335 11.1555 4.3335 11.3333V19.3333C4.3335 19.5111 4.40016 19.6667 4.5335 19.8C4.66683 19.9333 4.82236 20 5.00016 20C5.17796 20 5.3335 19.9333 5.46683 19.8C5.60016 19.6667 5.66683 19.5111 5.66683 19.3333V18ZM8.00016 16C8.46683 16 8.8613 15.8389 9.1835 15.5167C9.5057 15.1945 9.66683 14.8 9.66683 14.3333C9.66683 13.8667 9.5057 13.4722 9.1835 13.15C8.8613 12.8278 8.46683 12.6667 8.00016 12.6667C7.5335 12.6667 7.13903 12.8278 6.81683 13.15C6.49463 13.4722 6.3335 13.8667 6.3335 14.3333C6.3335 14.8 6.49463 15.1945 6.81683 15.5167C7.13903 15.8389 7.5335 16 8.00016 16Z" fill="black"/>
</svg>
