<svg width="20" height="20" viewBox="0 0 20 20" fill="none" xmlns="http://www.w3.org/2000/svg">
<g clip-path="url(#clip0_511_5644)">
<path d="M10.8835 6.75845L12.0627 7.93761C12.6045 8.47929 13.0342 9.12238 13.3274 9.83015C13.6206 10.5379 13.7715 11.2965 13.7715 12.0626C13.7715 12.8287 13.6206 13.5873 13.3274 14.2951C13.0342 15.0028 12.6045 15.6459 12.0627 16.1876L11.7677 16.4818C10.6737 17.5758 9.18989 18.1904 7.64271 18.1904C6.09554 18.1904 4.61173 17.5758 3.51771 16.4818C2.4237 15.3878 1.80908 13.904 1.80908 12.3568C1.80908 10.8096 2.4237 9.3258 3.51771 8.23178L4.69688 9.41094C4.30719 9.79724 3.99763 10.2567 3.78599 10.7629C3.57434 11.2692 3.46477 11.8123 3.46357 12.361C3.46237 12.9097 3.56956 13.4532 3.77898 13.9604C3.98841 14.4676 4.29595 14.9284 4.68395 15.3164C5.07194 15.7044 5.53276 16.0119 6.03993 16.2213C6.5471 16.4308 7.09064 16.538 7.63935 16.5368C8.18806 16.5356 8.73113 16.426 9.23738 16.2143C9.74363 16.0027 10.2031 15.6931 10.5894 15.3034L10.8844 15.0084C11.6655 14.2271 12.1043 13.1675 12.1043 12.0626C12.1043 10.9578 11.6655 9.89814 10.8844 9.11678L9.70521 7.93761L10.8844 6.75928L10.8835 6.75845ZM16.4819 11.7676L15.3035 10.5893C15.6932 10.203 16.0028 9.74352 16.2144 9.23727C16.4261 8.73103 16.5357 8.18796 16.5369 7.63925C16.5381 7.09054 16.4309 6.547 16.2214 6.03983C16.012 5.53266 15.7045 5.07184 15.3165 4.68385C14.9285 4.29585 14.4677 3.98831 13.9605 3.77888C13.4533 3.56946 12.9098 3.46227 12.3611 3.46347C11.8124 3.46467 11.2693 3.57424 10.7631 3.78589C10.2568 3.99753 9.79734 4.30709 9.41105 4.69678L9.11605 4.99178C8.33492 5.77314 7.8961 6.83276 7.8961 7.93761C7.8961 9.04246 8.33492 10.1021 9.11605 10.8834L10.2952 12.0626L9.11605 13.2409L7.93771 12.0626C7.39597 11.5209 6.96624 10.8778 6.67305 10.1701C6.37986 9.4623 6.22896 8.70371 6.22896 7.93761C6.22896 7.17152 6.37986 6.41293 6.67305 5.70515C6.96624 4.99738 7.39597 4.35429 7.93771 3.81261L8.23271 3.51845C9.32673 2.42443 10.8105 1.80981 12.3577 1.80981C13.9049 1.80981 15.3887 2.42443 16.4827 3.51845C17.5767 4.61246 18.1913 6.09627 18.1913 7.64345C18.1913 9.19062 17.5767 10.6744 16.4827 11.7684L16.4819 11.7676Z" fill="#202020"/>
</g>
<defs>
<clipPath id="clip0_511_5644">
<rect width="20" height="20" fill="white"/>
</clipPath>
</defs>
</svg>
