<svg width="16" height="16" viewBox="0 0 16 16" fill="none" xmlns="http://www.w3.org/2000/svg">
<path fill-rule="evenodd" clip-rule="evenodd" d="M8 2.66659C5.42267 2.66659 3.33333 4.75592 3.33333 7.33325C3.33333 8.80398 4.22405 10.1786 5.46994 11.2583L7.76423 13.2467C7.89954 13.364 8.10046 13.364 8.23577 13.2467L10.5301 11.2583C11.776 10.1786 12.6667 8.80398 12.6667 7.33325C12.6667 4.75592 10.5773 2.66659 8 2.66659ZM2 7.33325C2 4.01954 4.68629 1.33325 8 1.33325C11.3137 1.33325 14 4.01954 14 7.33325C14 9.35085 12.7935 11.0611 11.4033 12.2659L9.10902 14.2543C8.47255 14.8059 7.52745 14.8059 6.89098 14.2543L4.5967 12.2659C3.20651 11.0611 2 9.35085 2 7.33325Z" fill="white"/>
<path d="M9.33334 7.33333C9.33334 8.06971 8.73638 8.66667 8.00001 8.66667C7.26363 8.66667 6.66667 8.06971 6.66667 7.33333C6.66667 6.59695 7.26363 6 8.00001 6C8.73638 6 9.33334 6.59695 9.33334 7.33333Z" fill="white"/>
</svg>
