<svg width="46" height="46" viewBox="0 0 46 46" fill="none" xmlns="http://www.w3.org/2000/svg">
<rect width="46" height="46" rx="23" fill="#7694B6"/>
<g clip-path="url(#clip0_511_5011)">
<path d="M14 24.0001H20V22.0001H14V12.8461C14 12.7592 14.0227 12.6738 14.0657 12.5984C14.1088 12.5229 14.1708 12.46 14.2456 12.4158C14.3204 12.3716 14.4054 12.3476 14.4923 12.3463C14.5791 12.3449 14.6649 12.3662 14.741 12.4081L33.203 22.5621C33.2814 22.6053 33.3468 22.6687 33.3923 22.7457C33.4378 22.8228 33.4618 22.9106 33.4618 23.0001C33.4618 23.0896 33.4378 23.1774 33.3923 23.2545C33.3468 23.3315 33.2814 23.3949 33.203 23.4381L14.741 33.5921C14.6649 33.634 14.5791 33.6553 14.4923 33.654C14.4054 33.6526 14.3204 33.6287 14.2456 33.5844C14.1708 33.5402 14.1088 33.4773 14.0657 33.4018C14.0227 33.3264 14 33.241 14 33.1541V24.0001Z" fill="white"/>
</g>
<defs>
<clipPath id="clip0_511_5011">
<rect width="24" height="24" fill="white" transform="translate(11 11)"/>
</clipPath>
</defs>
</svg>
