<svg width="25" height="25" viewBox="0 0 25 25" fill="none" xmlns="http://www.w3.org/2000/svg">
<g clip-path="url(#clip0_29228_2276)">
<path d="M22.188 13.6667H7.32861V12.9636C7.32861 11.8005 6.38235 10.8542 5.21924 10.8542H1.70361V6.6355H0.297363V22.1042H1.70361V17.8855H8.78174V20.698H22.8911V22.1042H24.2974V15.7761C24.2974 14.613 23.3511 13.6667 22.188 13.6667ZM5.21924 12.2605C5.60694 12.2605 5.92236 12.5759 5.92236 12.9636V13.6667H1.70361V12.2605H5.21924ZM1.70361 16.4792V15.073H8.78174V16.4792H1.70361ZM10.188 19.2917V15.073H22.188C22.5757 15.073 22.8911 15.3884 22.8911 15.7761V19.2917H10.188Z" fill="#696969"/>
<path d="M22.8442 10.8542H21.438V10.1511C21.438 7.67594 19.6013 5.62192 17.2192 5.27969V3.823H15.813V5.27969C13.4309 5.62192 11.5942 7.67589 11.5942 10.1511V10.8542H10.188V12.2605H22.8442V10.8542ZM13.0005 10.1511C13.0005 8.21261 14.5776 6.6355 16.5161 6.6355C18.4546 6.6355 20.0317 8.21261 20.0317 10.1511V10.8542H13.0005V10.1511Z" fill="#696969"/>
</g>
<defs>
<clipPath id="clip0_29228_2276">
<rect width="24" height="24" fill="white" transform="translate(0.297363 0.963623)"/>
</clipPath>
</defs>
</svg>
