<svg width="60" height="60" viewBox="0 0 60 60" fill="none" xmlns="http://www.w3.org/2000/svg">
<path d="M26.8503 4.12351C28.6372 2.50231 31.3628 2.50231 33.1497 4.12351L35.877 6.59796C37.1494 7.75236 38.8237 8.36176 40.5405 8.29531L44.2203 8.15287C46.6312 8.05954 48.7192 9.81156 49.0459 12.2021L49.5446 15.8507C49.7773 17.5529 50.6682 19.0959 52.026 20.1485L54.9364 22.4047C56.8433 23.883 57.3166 26.5672 56.0303 28.6085L54.067 31.724C53.1511 33.1775 52.8417 34.9322 53.2053 36.6114L53.9846 40.2105C54.4951 42.5686 53.1323 44.9291 50.8348 45.666L47.3282 46.7907C45.6923 47.3154 44.3274 48.4607 43.5266 49.9807L41.81 53.2387C40.6854 55.3733 38.1241 56.3055 35.8905 55.3932L32.4814 54.0008C30.8909 53.3512 29.1091 53.3512 27.5186 54.0008L24.1095 55.3932C21.8759 56.3055 19.3146 55.3733 18.19 53.2387L16.4734 49.9807C15.6726 48.4607 14.3077 47.3154 12.6718 46.7907L9.16516 45.666C6.86772 44.9291 5.50489 42.5686 6.01545 40.2105L6.79472 36.6114C7.15827 34.9323 6.84887 33.1775 5.93295 31.724L3.96969 28.6085C2.68341 26.5672 3.15672 23.883 5.06357 22.4047L7.97403 20.1485C9.33183 19.0959 10.2227 17.5529 10.4554 15.8507L10.9541 12.2021C11.2808 9.81156 13.3688 8.05954 15.7797 8.15287L19.4595 8.29531C21.1763 8.36176 22.8506 7.75236 24.123 6.59796L26.8503 4.12351Z" fill="#42CA4F" stroke="#42CA4F" stroke-width="1.875"/>
<path d="M38 24L27 35L22 30" stroke="white" stroke-width="2" stroke-linecap="round" stroke-linejoin="round"/>
</svg>
