<svg width="25" height="25" viewBox="0 0 25 25" fill="none" xmlns="http://www.w3.org/2000/svg">
<path d="M7.94323 11.4769H6.73536V12.4816H3.06421V23.0278H11.6144V12.4816H7.94323V11.4769ZM10.4065 13.6895V21.8199H4.27208V13.6895H6.73536V14.6942H7.94323V13.6895H10.4065Z" fill="#696969"/>
<path d="M15.9617 17.3515L15.1084 18.2063L16.8112 19.9059L19.1378 17.5835L18.2845 16.7286L16.8111 18.1993L15.9617 17.3515Z" fill="#696969"/>
<path d="M17.7269 11.4769H16.5191V12.4816H12.8479V23.0278H21.3981V12.4816H17.7269V11.4769ZM20.1902 13.6895V21.8199H14.0558V13.6895H16.5191V14.6942H17.7269V13.6895H20.1902Z" fill="#696969"/>
<path d="M7.94323 2.4137H6.73536V3.4184H3.06421V10.3476H11.6144V3.4184H7.94323V2.4137ZM10.4065 4.62627V9.13974H4.27208V4.62627H6.73536V5.63097H7.94323V4.62627H10.4065Z" fill="#696969"/>
<path d="M17.7269 3.4184V2.4137H16.5191V3.4184H12.8479V10.3476H21.3981V3.4184H17.7269ZM20.1902 9.13974H14.0558V4.62627H16.5191V5.63097H17.7269V4.62627H20.1902V9.13974Z" fill="#696969"/>
</svg>
