<svg width="20" height="20" viewBox="0 0 20 20" fill="none" xmlns="http://www.w3.org/2000/svg">
<g clip-path="url(#clip0_511_3252)">
<path d="M3.33337 18.3333C3.33337 16.5652 4.03575 14.8695 5.286 13.6193C6.53624 12.369 8.23193 11.6666 10 11.6666C11.7682 11.6666 13.4638 12.369 14.7141 13.6193C15.9643 14.8695 16.6667 16.5652 16.6667 18.3333H15C15 17.0072 14.4733 15.7355 13.5356 14.7978C12.5979 13.8601 11.3261 13.3333 10 13.3333C8.67396 13.3333 7.40219 13.8601 6.46451 14.7978C5.52682 15.7355 5.00004 17.0072 5.00004 18.3333H3.33337ZM10 10.8333C7.23754 10.8333 5.00004 8.59581 5.00004 5.83331C5.00004 3.07081 7.23754 0.833313 10 0.833313C12.7625 0.833313 15 3.07081 15 5.83331C15 8.59581 12.7625 10.8333 10 10.8333ZM10 9.16665C11.8417 9.16665 13.3334 7.67498 13.3334 5.83331C13.3334 3.99165 11.8417 2.49998 10 2.49998C8.15837 2.49998 6.66671 3.99165 6.66671 5.83331C6.66671 7.67498 8.15837 9.16665 10 9.16665Z" fill="white"/>
</g>
<defs>
<clipPath id="clip0_511_3252">
<rect width="20" height="20" fill="white"/>
</clipPath>
</defs>
</svg>
