<svg width="20" height="20" viewBox="0 0 20 20" fill="none" xmlns="http://www.w3.org/2000/svg">
<g clip-path="url(#clip0_563_3822)">
<path d="M10.0002 11.6666V13.3333C8.67408 13.3333 7.40231 13.86 6.46463 14.7977C5.52695 15.7354 5.00016 17.0072 5.00016 18.3333H3.3335C3.3335 16.5651 4.03588 14.8694 5.28612 13.6192C6.53636 12.369 8.23205 11.6666 10.0002 11.6666ZM10.0002 10.8333C7.23766 10.8333 5.00016 8.59575 5.00016 5.83325C5.00016 3.07075 7.23766 0.833252 10.0002 0.833252C12.7627 0.833252 15.0002 3.07075 15.0002 5.83325C15.0002 8.59575 12.7627 10.8333 10.0002 10.8333ZM10.0002 9.16659C11.8418 9.16659 13.3335 7.67492 13.3335 5.83325C13.3335 3.99159 11.8418 2.49992 10.0002 2.49992C8.1585 2.49992 6.66683 3.99159 6.66683 5.83325C6.66683 7.67492 8.1585 9.16659 10.0002 9.16659ZM15.0002 17.9166L12.551 19.2041L13.0185 16.4774L11.0377 14.5458L13.776 14.1474L15.0002 11.6666L16.2252 14.1474L18.9627 14.5458L16.9818 16.4774L17.4485 19.2041L15.0002 17.9166Z" fill="#202020"/>
</g>
<defs>
<clipPath id="clip0_563_3822">
<rect width="20" height="20" fill="white"/>
</clipPath>
</defs>
</svg>
